<svg width="20" height="20" viewBox="0 0 20 20" fill="none" xmlns="http://www.w3.org/2000/svg">
<path d="M15 1.33989C16.5202 2.21758 17.7826 3.47997 18.6603 5.00017C19.538 6.52038 20 8.24483 20 10.0002C20 11.7556 19.5379 13.48 18.6602 15.0002C17.7825 16.5204 16.5201 17.7828 14.9999 18.6605C13.4797 19.5381 11.7552 20.0002 9.99984 20.0001C8.24446 20.0001 6.52002 19.538 4.99984 18.6603C3.47965 17.7826 2.21729 16.5202 1.33963 15C0.46198 13.4797 -4.45897e-05 11.7553 3.22765e-09 9.99989L0.00500012 9.67589C0.0610032 7.94888 0.563548 6.26585 1.46364 4.79089C2.36373 3.31592 3.63065 2.09934 5.14089 1.25977C6.65113 0.420205 8.35315 -0.0137108 10.081 0.000330246C11.8089 0.0143713 13.5036 0.47589 15 1.33989ZM10 12.9999C9.73478 12.9999 9.48043 13.1052 9.29289 13.2928C9.10536 13.4803 9 13.7347 9 13.9999V14.0099C9 14.2751 9.10536 14.5295 9.29289 14.717C9.48043 14.9045 9.73478 15.0099 10 15.0099C10.2652 15.0099 10.5196 14.9045 10.7071 14.717C10.8946 14.5295 11 14.2751 11 14.0099V13.9999C11 13.7347 10.8946 13.4803 10.7071 13.2928C10.5196 13.1052 10.2652 12.9999 10 12.9999ZM10 5.99989C9.73478 5.99989 9.48043 6.10525 9.29289 6.29279C9.10536 6.48032 9 6.73468 9 6.99989V10.9999C9 11.2651 9.10536 11.5195 9.29289 11.707C9.48043 11.8945 9.73478 11.9999 10 11.9999C10.2652 11.9999 10.5196 11.8945 10.7071 11.707C10.8946 11.5195 11 11.2651 11 10.9999V6.99989C11 6.73468 10.8946 6.48032 10.7071 6.29279C10.5196 6.10525 10.2652 5.99989 10 5.99989Z" fill="white"/>
</svg>
