<svg width="19" height="19" viewBox="0 0 19 19" fill="none" xmlns="http://www.w3.org/2000/svg">
<path d="M9.49998 15.6923C9.87176 15.6923 10.1907 15.5625 10.4567 15.3029C10.7227 15.0432 10.8653 14.7243 10.8846 14.3461H8.11538C8.13461 14.7243 8.27723 15.0432 8.54325 15.3029C8.80928 15.5625 9.12819 15.6923 9.49998 15.6923ZM4.88462 13.0769H14.1153V11.4615H13.1153V8.80383C13.1153 7.87049 12.8721 7.01985 12.3855 6.2519C11.899 5.48397 11.2192 4.99615 10.3461 4.78845V3.26923H8.65383V4.78845C7.78076 4.99615 7.10096 5.48077 6.61443 6.2423C6.12789 7.00383 5.88462 7.85126 5.88462 8.78458V11.4615H4.88462V13.0769ZM7.49998 11.4615V8.38458C7.49998 7.83458 7.69581 7.36374 8.08748 6.97208C8.47914 6.58041 8.94998 6.38458 9.49998 6.38458C10.05 6.38458 10.5208 6.58041 10.9125 6.97208C11.3041 7.36374 11.5 7.83458 11.5 8.38458V11.4615H7.49998ZM9.50165 19C8.18772 19 6.95268 18.7506 5.79655 18.252C4.6404 17.7533 3.63472 17.0765 2.7795 16.2217C1.92427 15.3669 1.24721 14.3616 0.748325 13.206C0.249442 12.0504 0 10.8156 0 9.50165C0 8.18772 0.249334 6.95268 0.748 5.79655C1.24667 4.6404 1.92342 3.63472 2.77825 2.7795C3.6331 1.92427 4.63834 1.24721 5.79398 0.748326C6.94959 0.249443 8.18437 0 9.4983 0C10.8122 0 12.0473 0.249334 13.2034 0.748001C14.3596 1.24667 15.3652 1.92342 16.2205 2.77825C17.0757 3.6331 17.7527 4.63834 18.2516 5.79398C18.7505 6.94959 19 8.18437 19 9.4983C19 10.8122 18.7506 12.0473 18.252 13.2034C17.7533 14.3596 17.0765 15.3652 16.2217 16.2205C15.3669 17.0757 14.3616 17.7527 13.206 18.2516C12.0504 18.7505 10.8156 19 9.50165 19ZM9.49998 17.5C11.7333 17.5 13.625 16.725 15.175 15.175C16.725 13.625 17.5 11.7333 17.5 9.49998C17.5 7.26664 16.725 5.37498 15.175 3.82498C13.625 2.27498 11.7333 1.49998 9.49998 1.49998C7.26664 1.49998 5.37498 2.27498 3.82498 3.82498C2.27498 5.37498 1.49998 7.26664 1.49998 9.49998C1.49998 11.7333 2.27498 13.625 3.82498 15.175C5.37498 16.725 7.26664 17.5 9.49998 17.5Z" fill="white"/>
</svg>
