<svg width="19" height="19" viewBox="0 0 19 19" fill="none" xmlns="http://www.w3.org/2000/svg">
<path d="M3.52308 14.7923C4.37308 14.1615 5.29903 13.6635 6.30095 13.2981C7.30287 12.9327 8.36921 12.75 9.49998 12.75C10.6307 12.75 11.6971 12.9327 12.699 13.2981C13.7009 13.6635 14.6269 14.1615 15.4769 14.7923C16.0987 14.109 16.5913 13.3179 16.9548 12.4192C17.3182 11.5205 17.5 10.5474 17.5 9.49998C17.5 7.28331 16.7208 5.39581 15.1625 3.83748C13.6041 2.27914 11.7166 1.49998 9.49998 1.49998C7.28331 1.49998 5.39581 2.27914 3.83748 3.83748C2.27914 5.39581 1.49998 7.28331 1.49998 9.49998C1.49998 10.5474 1.68171 11.5205 2.04518 12.4192C2.40864 13.3179 2.90128 14.109 3.52308 14.7923ZM9.50028 10.25C8.58726 10.25 7.81729 9.93659 7.19038 9.30988C6.56346 8.68314 6.25 7.91328 6.25 7.00028C6.25 6.08726 6.56336 5.31729 7.19008 4.69038C7.81681 4.06346 8.58668 3.75 9.49968 3.75C10.4127 3.75 11.1827 4.06336 11.8096 4.69008C12.4365 5.31681 12.75 6.08668 12.75 6.99968C12.75 7.91269 12.4366 8.68266 11.8099 9.30958C11.1831 9.93649 10.4133 10.25 9.50028 10.25ZM9.49998 19C8.18074 19 6.94325 18.7519 5.7875 18.2557C4.63173 17.7596 3.62628 17.0839 2.77115 16.2288C1.91603 15.3737 1.2404 14.3682 0.74425 13.2125C0.248083 12.0567 0 10.8192 0 9.49998C0 8.18074 0.248083 6.94325 0.74425 5.7875C1.2404 4.63173 1.91603 3.62628 2.77115 2.77115C3.62628 1.91603 4.63173 1.2404 5.7875 0.744251C6.94325 0.248084 8.18074 0 9.49998 0C10.8192 0 12.0567 0.248084 13.2125 0.744251C14.3682 1.2404 15.3737 1.91603 16.2288 2.77115C17.0839 3.62628 17.7596 4.63173 18.2557 5.7875C18.7519 6.94325 19 8.18074 19 9.49998C19 10.8192 18.7519 12.0567 18.2557 13.2125C17.7596 14.3682 17.0839 15.3737 16.2288 16.2288C15.3737 17.0839 14.3682 17.7596 13.2125 18.2557C12.0567 18.7519 10.8192 19 9.49998 19ZM9.49998 17.5C10.4025 17.5 11.2727 17.3548 12.1105 17.0644C12.9484 16.774 13.6923 16.3679 14.3423 15.8461C13.6923 15.3436 12.958 14.9519 12.1394 14.6711C11.3208 14.3903 10.441 14.25 9.49998 14.25C8.55894 14.25 7.67753 14.3887 6.85573 14.6663C6.03393 14.9439 5.30123 15.3371 4.65765 15.8461C5.30765 16.3679 6.05157 16.774 6.8894 17.0644C7.72722 17.3548 8.59741 17.5 9.49998 17.5ZM9.49998 8.75C9.99741 8.75 10.4134 8.58269 10.7481 8.24808C11.0827 7.91344 11.25 7.49741 11.25 6.99998C11.25 6.50254 11.0827 6.08651 10.7481 5.75188C10.4134 5.41726 9.99741 5.24995 9.49998 5.24995C9.00254 5.24995 8.58651 5.41726 8.25187 5.75188C7.91726 6.08651 7.74995 6.50254 7.74995 6.99998C7.74995 7.49741 7.91726 7.91344 8.25187 8.24808C8.58651 8.58269 9.00254 8.75 9.49998 8.75Z" fill="#5A5A5A"/>
</svg>
