<svg width="22" height="21" viewBox="0 0 22 21" fill="none" xmlns="http://www.w3.org/2000/svg">
<path d="M10.548 20.9999C8.59805 20.9999 6.82849 20.5172 5.23938 19.5518C3.65028 18.5864 2.40381 17.2928 1.49998 15.671V18.6537H0V13.1538H5.49997V14.6537H2.65955C3.38263 16.1102 4.45123 17.282 5.86533 18.1692C7.27944 19.0564 8.84035 19.5 10.548 19.5C11.7724 19.5 12.9208 19.2737 13.9932 18.8211C15.0657 18.3685 16.0045 17.7509 16.8096 16.9682C17.6147 16.1855 18.2612 15.2612 18.749 14.1952C19.2368 13.1291 19.5 11.9807 19.5384 10.75H21.0384C21.0064 12.1705 20.7092 13.5025 20.1471 14.7461C19.5849 15.9897 18.831 17.0762 17.8855 18.0057C16.94 18.9352 15.8375 19.6666 14.5779 20.1999C13.3182 20.7333 11.975 20.9999 10.548 20.9999ZM0.0577001 10.2499C0.102583 8.7974 0.409317 7.44772 0.9779 6.20092C1.54648 4.95414 2.30673 3.86922 3.25865 2.94615C4.21058 2.02308 5.31154 1.30129 6.56152 0.780774C7.81152 0.260257 9.14037 0 10.548 0C12.4788 0 14.2484 0.484299 15.8567 1.4529C17.4651 2.4215 18.7115 3.72633 19.5961 5.36738V2.3462H21.0961V7.84615H15.5961V6.3462H18.4366C17.7327 4.9154 16.6721 3.75 15.2548 2.85C13.8375 1.94997 12.2686 1.49995 10.548 1.49995C9.34933 1.49995 8.21536 1.72302 7.14613 2.16917C6.07691 2.61532 5.13653 3.22654 4.32498 4.00282C3.51344 4.77911 2.85896 5.70026 2.36153 6.76627C1.86409 7.83231 1.59614 8.99352 1.55768 10.2499L0.0577001 10.2499Z" fill="white"/>
</svg>
