<svg width="22" height="22" viewBox="0 0 22 22" fill="none" xmlns="http://www.w3.org/2000/svg">
<g clip-path="url(#clip0_6892_22752)">
<path fill-rule="evenodd" clip-rule="evenodd" d="M22.0001 11.2508C22.0011 10.496 21.9328 9.74275 21.7961 9H11.2217V13.2549H17.2628C17.1374 13.9273 16.8743 14.5677 16.4894 15.1376C16.1045 15.7076 15.6057 16.1952 15.0232 16.571V19.3316H18.6502C20.7725 17.4166 21.997 14.5959 21.997 11.2487L22.0001 11.2508Z" fill="#3E82F1"/>
<path fill-rule="evenodd" clip-rule="evenodd" d="M11.2252 21.9977C14.2558 21.9977 16.7968 21.0133 18.6537 19.3335L15.0267 16.5729C14.0211 17.233 12.7352 17.6236 11.2252 17.6236C8.30138 17.6236 5.82698 15.6879 4.94507 13.0879H1.19434V15.9387C2.12867 17.7607 3.56157 19.2923 5.33294 20.3623C7.10431 21.4322 9.14437 21.9985 11.2252 21.9977Z" fill="#32A753"/>
<path fill-rule="evenodd" clip-rule="evenodd" d="M4.94452 13.0886C4.47501 11.7335 4.47501 10.2645 4.94452 8.90937V6.05859H1.19378C0.408778 7.59185 0 9.28358 0 10.999C0 12.7144 0.408778 14.4062 1.19378 15.9394L4.94452 13.0886Z" fill="#F9BB00"/>
<path fill-rule="evenodd" clip-rule="evenodd" d="M11.225 4.37409C12.8736 4.37409 14.3529 4.92953 15.5161 6.01968L18.735 2.86425C16.7914 1.08912 14.2504 7.60981e-07 11.2271 7.60981e-07C9.14632 -0.000757715 7.10626 0.565483 5.33489 1.63546C3.56352 2.70545 2.13062 4.23702 1.19629 6.05906L4.94703 8.90984C5.82893 6.30984 8.30333 4.37409 11.2271 4.37409H11.225Z" fill="#E74133"/>
</g>
<defs>
<clipPath id="clip0_6892_22752">
<rect width="22" height="22" fill="white"/>
</clipPath>
</defs>
</svg>
