<svg width="84" height="16" viewBox="0 0 84 16" fill="none" xmlns="http://www.w3.org/2000/svg">
<path d="M80.3497 4.95951V7.41949H73.3094V8.35948H81.6097V10.8595H77.3896V12.5195H83.3698V15.1194H68.4893V12.5195H74.4695V10.8595H70.4893V1.51953H81.0897V4.03951H73.3094V4.95951H80.3497Z" fill="white"/>
<path d="M67.5632 15.1177H52.6826V12.5177H58.6628V10.3378H54.3027V7.85777H55.9627V4.35779H54.3027V1.75781H65.9631V4.35779H64.303V7.85777H65.9631V10.3378H61.5829V12.5177H67.5632V15.1177ZM61.5829 7.85777V4.35779H58.6828V7.85777H61.5829Z" fill="white"/>
<path d="M41.4862 10.4999C40.8195 10.4999 40.1928 10.3799 39.6061 10.1399C39.0194 9.8866 38.5127 9.5466 38.086 9.11993C37.6327 8.7066 37.2794 8.21994 37.026 7.65994C36.7727 7.08662 36.646 6.47329 36.646 5.81996C36.646 5.16663 36.7727 4.55997 37.026 3.99997C37.2794 3.42664 37.6327 2.92665 38.086 2.49998C38.5127 2.07332 39.0194 1.73999 39.6061 1.49999C40.1928 1.24666 40.8195 1.11999 41.4862 1.11999C42.1529 1.11999 42.7729 1.24666 43.3462 1.49999C43.9329 1.73999 44.4463 2.07332 44.8863 2.49998C45.313 2.92665 45.653 3.42664 45.9063 3.99997C46.173 4.55997 46.3064 5.16663 46.3064 5.81996C46.3064 6.47329 46.173 7.08662 45.9063 7.65994C45.653 8.21994 45.313 8.7066 44.8863 9.11993C44.4463 9.5466 43.9329 9.8866 43.3462 10.1399C42.7729 10.3799 42.1529 10.4999 41.4862 10.4999ZM41.4862 3.71997C40.9128 3.71997 40.4261 3.92664 40.0261 4.33997C39.6394 4.73997 39.4461 5.2333 39.4461 5.81996C39.4461 6.40662 39.6394 6.89995 40.0261 7.29995C40.4261 7.69995 40.9128 7.89994 41.4862 7.89994C41.7529 7.89994 42.0062 7.85328 42.2462 7.75994C42.4995 7.65328 42.7196 7.49995 42.9062 7.29995C43.0929 7.11328 43.2396 6.89328 43.3462 6.63995C43.4529 6.37329 43.5063 6.09996 43.5063 5.81996C43.5063 5.53996 43.4529 5.2733 43.3462 5.01996C43.2396 4.7533 43.0929 4.51997 42.9062 4.31997C42.7196 4.1333 42.4995 3.98664 42.2462 3.87997C42.0062 3.77331 41.7529 3.71997 41.4862 3.71997ZM51.3065 15.1199H48.4464V0H51.3065V15.1199ZM47.6864 12.2199V14.7599H36.126V12.2199H47.6864Z" fill="#EFFF04"/>
<path d="M21.5536 5.83996C21.2602 5.83996 20.9802 5.90662 20.7135 6.03996C20.4469 6.17329 20.2135 6.35995 20.0135 6.59995C19.8135 6.82662 19.6535 7.09995 19.5335 7.41995C19.4135 7.73994 19.3535 8.07328 19.3535 8.41994C19.3535 8.77994 19.4135 9.11993 19.5335 9.43993C19.6535 9.7466 19.8135 10.0133 20.0135 10.2399C20.2135 10.4799 20.4469 10.6666 20.7135 10.7999C20.9802 10.9333 21.2602 10.9999 21.5536 10.9999C21.8603 10.9999 22.1469 10.9333 22.4136 10.7999C22.6803 10.6666 22.9136 10.4799 23.1136 10.2399C23.3136 10.0133 23.467 9.7466 23.5737 9.43993C23.6937 9.11993 23.7537 8.77994 23.7537 8.41994C23.7537 8.07328 23.6937 7.73994 23.5737 7.41995C23.467 7.09995 23.3136 6.82662 23.1136 6.59995C22.9136 6.35995 22.6803 6.17329 22.4136 6.03996C22.1469 5.90662 21.8603 5.83996 21.5536 5.83996ZM21.5536 13.7399C20.8869 13.7399 20.2602 13.6066 19.6735 13.3399C19.1002 13.0599 18.5935 12.6799 18.1535 12.1999C17.7134 11.7066 17.3668 11.1399 17.1134 10.4999C16.8601 9.8466 16.7334 9.15327 16.7334 8.41994C16.7334 7.68661 16.8601 6.99995 17.1134 6.35995C17.3668 5.71996 17.7134 5.1533 18.1535 4.65997C18.5935 4.17997 19.1002 3.80664 19.6735 3.53997C20.2602 3.25998 20.8869 3.11998 21.5536 3.11998C22.2203 3.11998 22.847 3.25998 23.4336 3.53997C24.0203 3.80664 24.527 4.17997 24.9537 4.65997C25.3937 5.1533 25.7337 5.71996 25.9737 6.35995C26.2271 6.99995 26.3538 7.68661 26.3538 8.41994C26.3538 9.15327 26.2271 9.8466 25.9737 10.4999C25.7337 11.1399 25.3937 11.7066 24.9537 12.1999C24.527 12.6799 24.0203 13.0599 23.4336 13.3399C22.847 13.6066 22.2203 13.7399 21.5536 13.7399ZM31.4339 8.65994H29.8139V15.1199H27.0338V0.959993H29.8139V6.11996H31.4339V0H34.234V15.1199H31.4339V8.65994Z" fill="white"/>
<path d="M1.96007 10.7599L0 8.89994L3.66014 4.95996H0.760028V2.71998H4.16015V0.199998H7.06026V2.71998H10.4604V4.95996H7.56028L11.2004 8.89994L9.26034 10.7599L5.60021 6.05996L1.96007 10.7599ZM15.3606 15.1199H12.5005V0H15.3606V15.1199ZM11.7204 12.2199V14.7599H0.180007V12.2199H4.06015V9.09994H6.98026V12.2199H11.7204Z" fill="white"/>
</svg>
